<?xml version="1.0" encoding="UTF-8"?>
<svg version="1.1" xmlns="http://www.w3.org/2000/svg" width="588" height="512">
<path d="M0 0 C4.40216285 1.59604483 6.75523554 4.9270261 9.625 8.4375 C10.11484375 9.02337891 10.6046875 9.60925781 11.109375 10.21289062 C13.21027971 12.74143851 15.17512296 15.26268444 17 18 C18.07636719 17.92007813 19.15273438 17.84015625 20.26171875 17.7578125 C24 18 24 18 25.56884766 19.26855469 C27.09153938 21.07774411 28.46466436 22.93213959 29.8125 24.875 C30.75597311 26.16445581 31.69996189 27.45353451 32.64453125 28.7421875 C33.05034424 29.3182373 33.45615723 29.89428711 33.87426758 30.48779297 C35.05931799 32.1559572 35.05931799 32.1559572 37 34 C37.125 36.4375 37.125 36.4375 37 39 C37 43.37372535 39.71812777 45.45902165 42.5 48.5625 C43.61710752 49.83616874 44.73299164 51.11091152 45.84765625 52.38671875 C46.39309082 53.00853027 46.93852539 53.6303418 47.50048828 54.27099609 C50.02076312 57.17698542 52.39778317 60.18975443 54.77734375 63.2109375 C56.62329265 65.52729517 58.49285774 67.81798742 60.37890625 70.1015625 C60.97517822 70.82617676 61.5714502 71.55079102 62.18579102 72.29736328 C63.38173578 73.74936351 64.58136511 75.1983379 65.78491211 76.64404297 C66.33026611 77.30807129 66.87562012 77.97209961 67.4375 78.65625 C68.17806641 79.55053711 68.17806641 79.55053711 68.93359375 80.46289062 C70 82 70 82 70 84 C95.41 84 120.82 84 147 84 C145 89 145 89 137 102 C125.12 102 113.24 102 101 102 C101 163.05 101 224.1 101 287 C93.08 287 85.16 287 77 287 C76.67 239.48 76.34 191.96 76 143 C61.81 143 47.62 143 33 143 C31.35 148.28 29.7 153.56 28 159 C20.77951347 172.19127346 10.42716933 182.85664643 -4.09863281 187.69970703 C-12.16330668 190.00311795 -20.48927299 191.3856289 -28.77734375 192.60546875 C-31.0304287 192.89687715 -31.0304287 192.89687715 -33 194 C-22.1364823 207.86637019 -22.1364823 207.86637019 -11.07421875 221.57421875 C-5.36779527 228.54709448 0.24471721 235.5687184 5.6875 242.75 C10.15599331 248.64556897 14.74969856 254.37505025 19.5234375 260.02734375 C23.73018397 265.07676656 27.77021663 270.25603908 31.79736328 275.44921875 C32.8707209 276.83329662 33.94871781 278.21377384 35.02734375 279.59375 C39 284.75352941 39 284.75352941 39 287 C9.88037122 289.07598121 9.88037122 289.07598121 3.80859375 284.71484375 C0.91758222 281.8585128 -0.99476601 278.51428534 -3 275 C-4.44666962 273.18199272 -5.92569364 271.38921229 -7.4375 269.625 C-8.15808594 268.73039062 -8.87867188 267.83578125 -9.62109375 266.9140625 C-12.35905153 263.56017662 -15.17219888 260.27810205 -18 257 C-22.3196209 251.98709824 -26.55098085 246.91461491 -30.72265625 241.77734375 C-33.28203972 238.65603733 -35.88589916 235.57546576 -38.5 232.5 C-41.85447127 228.55349519 -45.17221829 224.58357928 -48.4375 220.5625 C-52.56187888 215.48749296 -56.81213984 210.52810942 -61.10327148 205.59399414 C-64.45395357 201.72081421 -66.12543265 199.78148757 -66.1328125 194.68359375 C-66.13410156 193.83732422 -66.13539063 192.99105469 -66.13671875 192.11914062 C-66.13285156 191.23419922 -66.12898437 190.34925781 -66.125 189.4375 C-66.12886719 188.54869141 -66.13273438 187.65988281 -66.13671875 186.74414062 C-66.13542969 185.89916016 -66.13414062 185.05417969 -66.1328125 184.18359375 C-66.13168457 183.40556396 -66.13055664 182.62753418 -66.12939453 181.82592773 C-66 180 -66 180 -65 179 C-63.21205501 178.89003959 -61.42011957 178.84405295 -59.62890625 178.82421875 C-30.96311501 178.66195549 -30.96311501 178.66195549 -6.1875 165.75 C0.31139768 158.65473288 2.42797736 151.43074968 5 142 C-13.48 142 -31.96 142 -51 142 C-49.4049063 138.01226576 -47.84821775 134.94366901 -45.5625 131.375 C-44.96566406 130.43398437 -44.36882812 129.49296875 -43.75390625 128.5234375 C-40.05571974 123.20266137 -40.05571974 123.20266137 -37.12068176 122.63923645 C-36.41674789 122.64589828 -35.71281403 122.65256012 -34.98754883 122.65942383 C-34.18694534 122.65965042 -33.38634186 122.65987701 -32.56147766 122.66011047 C-31.70201035 122.67559433 -30.84254303 122.69107819 -29.95703125 122.70703125 C-28.63163582 122.71339851 -28.63163582 122.71339851 -27.27946472 122.71989441 C-24.45683339 122.73668957 -21.63491559 122.77434303 -18.8125 122.8125 C-16.89909885 122.82754577 -14.98568651 122.84123436 -13.07226562 122.85351562 C-8.38123541 122.88659581 -3.69073869 122.9383837 1 123 C-0.21421019 121.23324002 -1.44220473 119.4759492 -2.67578125 117.72265625 C-3.35809814 116.74304932 -4.04041504 115.76344238 -4.7434082 114.75415039 C-10.43356667 107.80936215 -19.26193159 104.17241368 -28 103 C-31.25648483 102.8117816 -34.51237805 102.74498671 -37.7734375 102.68359375 C-39.1590538 102.6524221 -39.1590538 102.6524221 -40.57266235 102.62062073 C-43.50670344 102.55553881 -46.44082962 102.49643357 -49.375 102.4375 C-51.37110235 102.3942754 -53.36719627 102.35065988 -55.36328125 102.30664062 C-60.24210156 102.1999001 -65.12100699 102.09851752 -70 102 C-69.12563409 97.93011372 -67.20553261 94.7943111 -65 91.3125 C-64.44699219 90.42208008 -64.44699219 90.42208008 -63.8828125 89.51367188 C-61.16636588 85.16636588 -61.16636588 85.16636588 -60 84 C-57.38399547 83.87492518 -54.79308066 83.81394595 -52.17553711 83.79467773 C-51.35609116 83.78477814 -50.5366452 83.77487854 -49.69236755 83.76467896 C-46.97072283 83.73296945 -44.24906061 83.70826938 -41.52734375 83.68359375 C-39.64546747 83.66303237 -37.76359589 83.64203612 -35.88172913 83.62062073 C-30.91856689 83.56531574 -25.9553624 83.51594377 -20.99212646 83.46777344 C-15.93156149 83.41761978 -10.8710582 83.36190176 -5.81054688 83.30664062 C4.12624945 83.19895605 14.06309923 83.09753411 24 83 C22.5616595 81.71675769 21.12264645 80.43426919 19.68334961 79.15209961 C18.88207138 78.4378331 18.08079315 77.72356659 17.25523376 76.98765564 C14.74468151 74.77497445 12.17513321 72.65342174 9.5625 70.5625 C5.94868468 67.63224363 2.43882922 64.63363994 -1 61.5 C-4.34133363 58.45812552 -7.7411601 55.53458501 -11.25 52.6875 C-13.16694481 51.12534125 -15.08358346 49.56280678 -17 48 C-17.61085449 47.505 -18.22170898 47.01 -18.85107422 46.5 C-20.80671906 44.90777631 -22.7479595 43.29928271 -24.6875 41.6875 C-25.31237305 41.18371826 -25.93724609 40.67993652 -26.58105469 40.16088867 C-28.32421875 38.69921875 -28.32421875 38.69921875 -31 36 C-31 34.68 -31 33.36 -31 32 C-28.88151745 30.25519005 -26.85381022 28.79332638 -24.5625 27.3125 C-14.69026647 20.57826199 -7.79304137 13.52244236 -2 3 C-1.34 2.01 -0.68 1.02 0 0 Z M23 101 C23 104.43394854 23.84013105 106.10812069 25.3125 109.1875 C27.49127825 113.76097146 29.20091744 118.20244651 31 123 C45.52 123 60.04 123 75 123 C75 116.07 75 109.14 75 102 C73.99253581 100.77099538 73.99253581 100.77099538 71.94358826 100.87974548 C70.58790489 100.8830764 70.58790489 100.8830764 69.20483398 100.88647461 C67.67335976 100.88658791 67.67335976 100.88658791 66.11094666 100.88670349 C65.0005452 100.89186478 63.89014374 100.89702606 62.74609375 100.90234375 C61.05021873 100.90446617 61.05021873 100.90446617 59.32008362 100.90663147 C55.69252935 100.91224981 52.06503576 100.92480542 48.4375 100.9375 C45.98502693 100.94251264 43.5325529 100.94707595 41.08007812 100.95117188 C35.05336455 100.9622252 29.02668661 100.97898116 23 101 Z " fill="#00A1E7" transform="translate(258,109)"/>
<path d="M0 0 C9.98697827 5.26699793 15.70475051 12.73706857 19.49609375 23.31640625 C20.86187906 29.21236679 21.04092215 33.92210358 17.9453125 39.22265625 C15.03089052 43.43324974 12.02051117 47.59364499 8.49609375 51.31640625 C7.83609375 51.31640625 7.17609375 51.31640625 6.49609375 51.31640625 C6.49609375 51.97640625 6.49609375 52.63640625 6.49609375 53.31640625 C5.83609375 53.31640625 5.17609375 53.31640625 4.49609375 53.31640625 C4.49609375 53.97640625 4.49609375 54.63640625 4.49609375 55.31640625 C-9.70707042 68.60576391 -9.70707042 68.60576391 -17.87890625 69.81640625 C-29.17936758 68.25772193 -38.87957614 64.23463482 -45.94140625 55.00390625 C-51.90560712 46.0515805 -53.66979971 38.09131174 -52.50390625 27.31640625 C-50.12473003 17.73869686 -45.32119094 9.44732971 -37.50390625 3.31640625 C-25.61572586 -3.15142895 -12.81243813 -5.46384806 0 0 Z " fill="#1C4999" transform="translate(236.50390625,71.68359375)"/>
<path d="M0 0 C4.40216285 1.59604483 6.75523554 4.9270261 9.625 8.4375 C10.35976563 9.31631836 10.35976563 9.31631836 11.109375 10.21289062 C13.21027971 12.74143851 15.17512296 15.26268444 17 18 C18.07636719 17.92007813 19.15273438 17.84015625 20.26171875 17.7578125 C24 18 24 18 25.56884766 19.26855469 C27.09153938 21.07774411 28.46466436 22.93213959 29.8125 24.875 C30.75597311 26.16445581 31.69996189 27.45353451 32.64453125 28.7421875 C33.05034424 29.3182373 33.45615723 29.89428711 33.87426758 30.48779297 C35.05931799 32.1559572 35.05931799 32.1559572 37 34 C37.125 36.4375 37.125 36.4375 37 39 C37 43.37372535 39.71812777 45.45902165 42.5 48.5625 C43.61710752 49.83616874 44.73299164 51.11091152 45.84765625 52.38671875 C46.39309082 53.00853027 46.93852539 53.6303418 47.50048828 54.27099609 C50.02076312 57.17698542 52.39778317 60.18975443 54.77734375 63.2109375 C56.62329265 65.52729517 58.49285774 67.81798742 60.37890625 70.1015625 C60.97517822 70.82617676 61.5714502 71.55079102 62.18579102 72.29736328 C63.38173578 73.74936351 64.58136511 75.1983379 65.78491211 76.64404297 C66.33026611 77.30807129 66.87562012 77.97209961 67.4375 78.65625 C68.17806641 79.55053711 68.17806641 79.55053711 68.93359375 80.46289062 C70 82 70 82 70 84 C63.9904346 84.27483941 57.98462948 84.47283505 51.97021484 84.60424805 C49.93115435 84.65909263 47.89251672 84.73380459 45.85498047 84.82983398 C34.14338433 85.36740602 25.34887897 85.44605134 16.31307983 77.32853699 C15.32812122 76.37865165 14.35733056 75.41380946 13.402771 74.43338013 C11.14618461 72.12755395 8.71920029 70.02271914 6.3125 67.875 C5.42820312 67.05515625 4.54390625 66.2353125 3.6328125 65.390625 C0.18493017 62.25990692 -3.41759145 59.34810662 -7.0390625 56.421875 C-15.52342329 49.48216037 -23.78016359 42.2497936 -32 35 C-30.47398874 30.72908798 -27.66205868 29.20405873 -23.9375 26.8125 C-14.25687292 20.35473342 -7.62718683 13.22118525 -2 3 C-1.34 2.01 -0.68 1.02 0 0 Z " fill="#1C4898" transform="translate(258,109)"/>
<path d="M0 0 C-0.875 3.875 -0.875 3.875 -2 5 C-1.34 5.33 -0.68 5.66 0 6 C0.31241455 8.71446979 0.51336592 11.33909361 0.625 14.0625 C0.68300781 15.20041992 0.68300781 15.20041992 0.7421875 16.36132812 C0.83673562 18.24047195 0.91946756 20.12020336 1 22 C1.66 22 2.32 22 3 22 C3.0272415 20.58344207 3.04650467 19.16672955 3.0625 17.75 C3.07410156 16.96109375 3.08570313 16.1721875 3.09765625 15.359375 C3.00385306 13.09308998 2.63241063 11.1711105 2 9 C9.28571429 5.57142857 9.28571429 5.57142857 14 6 C14.495 6.99 14.495 6.99 15 8 C15.66 7.34 16.32 6.68 17 6 C20.9970313 5.48186631 23.11622079 5.32553692 26.375 7.8125 C28.37445401 11.73450594 28.61274414 15.02252933 28.82421875 19.37890625 C28.91780036 21.96668375 28.91780036 21.96668375 29.58203125 24.27734375 C29.71996094 24.84582031 29.85789062 25.41429687 30 26 C29 27 29 27 26.34765625 27.09765625 C25.26355469 27.08605469 24.17945313 27.07445312 23.0625 27.0625 C21.98097656 27.05347656 20.89945312 27.04445313 19.78515625 27.03515625 C18.86605469 27.02355469 17.94695312 27.01195312 17 27 C15.47793677 27 13.95587202 27.00645689 12.43383789 27.01586914 C8.9767339 27.03663332 5.51964187 27.04960709 2.0625 27.0625 C0.85658203 27.07087891 -0.34933594 27.07925781 -1.59179688 27.08789062 C-3.32333008 27.09272461 -3.32333008 27.09272461 -5.08984375 27.09765625 C-6.15066162 27.10289307 -7.21147949 27.10812988 -8.30444336 27.11352539 C-11 27 -11 27 -14 26 C-14.66 26.33 -15.32 26.66 -16 27 C-18.67578752 27.04247282 -21.32680213 27.04764115 -24 27 C-25.64650072 27 -27.29531906 27.02143445 -28.9375 27.140625 C-29.618125 27.17671875 -30.29875 27.2128125 -31 27.25 C-31.680625 27.29640625 -32.36125 27.3428125 -33.0625 27.390625 C-35 27 -35 27 -36.71484375 25.33203125 C-38.24344119 22.55825413 -38.42959977 20.58852168 -38.5625 17.4375 C-38.73459563 13.5940309 -38.80645666 12.29031501 -41 9 C-40 7 -40 7 -38.4375 6.375 C-34.93601819 5.83631049 -31.54193167 5.94096781 -28 6 C-28 10.95 -28 15.9 -28 21 C-27.01 21 -26.02 21 -25 21 C-25 17.7 -25 14.4 -25 11 C-25.66 11 -26.32 11 -27 11 C-26.6875 9.0625 -26.6875 9.0625 -26 7 C-23.24921116 6.08307039 -21.64051087 5.89113917 -18.8125 5.9375 C-16.9253125 5.9684375 -16.9253125 5.9684375 -15 6 C-14.67 10.95 -14.34 15.9 -14 21 C-13.01 21 -12.02 21 -11 21 C-10.67 18.36 -10.34 15.72 -10 13 C-10.99 12.67 -11.98 12.34 -13 12 C-12.6875 10.0625 -12.6875 10.0625 -12 8 C-11.01 7.67 -10.02 7.34 -9 7 C-9.99 6.34 -10.98 5.68 -12 5 C-11.67 3.35 -11.34 1.7 -11 0 C-6.53464227 -1.86921951 -4.33629181 -2.2956839 0 0 Z M15 13 C13.10114904 14.89885096 13.87632494 17.57247903 13.8671875 20.08984375 C13.88313139 22.08634367 13.88313139 22.08634367 15 24 C15.66 24 16.32 24 17 24 C18.14352916 21.71294169 18.10334439 20.40735238 18.0625 17.875 C18.041875 16.59625 18.02125 15.3175 18 14 C17.01 13.67 16.02 13.34 15 13 Z " fill="#00A2E7" transform="translate(312,406)"/>
<path d="M0 0 C0.67675781 -0.02900391 1.35351562 -0.05800781 2.05078125 -0.08789062 C5.29638564 -0.12950094 7.02786918 -0.12752592 9.453125 2.1328125 C10.82673567 4.99279293 10.77838335 7.18068726 10.5 10.3125 C9.5 11.3125 9.5 11.3125 7.1875 11.625 C3.70432151 11.21997925 2.9231975 9.7356975 0.5 7.3125 C-2.08582128 6.72847867 -2.08582128 6.72847867 -4.5 7.3125 C-6.78313626 10.73720439 -6.66040923 12.38280469 -6.05078125 16.37109375 C-5.24816694 19.20016687 -3.8451883 20.60690851 -1.5 22.3125 C-0.84 22.3125 -0.18 22.3125 0.5 22.3125 C0.83 21.6525 1.16 20.9925 1.5 20.3125 C0.18 19.9825 -1.14 19.6525 -2.5 19.3125 C-2.17 17.6625 -1.84 16.0125 -1.5 14.3125 C3.83333333 14.3125 9.16666667 14.3125 14.5 14.3125 C16.18762851 12.6670622 17.8540349 10.99961423 19.5 9.3125 C22.71402479 7.7054876 26.01404554 7.84503484 29.5 8.3125 C32.4375 9.875 32.4375 9.875 34.5 12.3125 C35.375 16 35.375 16 35.5 19.3125 C33.83657163 20.97592837 31.7174291 20.67298097 29.4375 20.875 C28.05884766 21.00068359 28.05884766 21.00068359 26.65234375 21.12890625 C25.94207031 21.18949219 25.23179687 21.25007813 24.5 21.3125 C27.87817425 22.15704356 30.17465243 22.42094919 33.5 21.3125 C33.995 23.7875 33.995 23.7875 34.5 26.3125 C30.48526886 29.86435625 27.32998117 29.87296616 22.1328125 29.734375 C19.5 29.3125 19.5 29.3125 16.4375 27.0625 C14.87318646 24.84218401 13.5226272 22.82258495 12.5 20.3125 C11.84 20.3125 11.18 20.3125 10.5 20.3125 C10.4175 20.89 10.335 21.4675 10.25 22.0625 C9.08302087 25.56343738 6.76813575 27.67843212 3.5 29.3125 C-2.03042052 29.81752343 -6.91030524 30.05057257 -12 27.6875 C-15.91365584 23.96952695 -18.69453947 20.84777471 -18.9375 15.3125 C-18.63766445 10.07537239 -16.86123849 6.57164561 -13 3 C-8.78030304 0.15170455 -4.92962068 0.07042315 0 0 Z M23.5 13.3125 C23.5 13.9725 23.5 14.6325 23.5 15.3125 C24.49 15.3125 25.48 15.3125 26.5 15.3125 C26.5 14.6525 26.5 13.9925 26.5 13.3125 C25.51 13.3125 24.52 13.3125 23.5 13.3125 Z " fill="#00A1E8" transform="translate(208.5,403.6875)"/>
<path d="M0 0 C0.30883789 2.21484375 0.30883789 2.21484375 0.22265625 4.9375 C0.20396484 5.91460937 0.18527344 6.89171875 0.16601562 7.8984375 C0.13185547 8.92195313 0.09769531 9.94546875 0.0625 11 C0.00269675 13.02058647 -0.04851624 15.04145123 -0.08984375 17.0625 C-0.11941162 17.96097656 -0.14897949 18.85945313 -0.17944336 19.78515625 C-0.22380935 22.20798783 -0.22380935 22.20798783 2 24 C3.98356483 24.71408334 5.98315437 25.38617742 8 26 C8 26.66 8 27.32 8 28 C8.66 28 9.32 28 10 28 C8.90615129 25.53659278 7.80061801 23.07968277 6.6875 20.625 C6.2244043 19.57699219 6.2244043 19.57699219 5.75195312 18.5078125 C4.14983734 15.00002215 3.2735521 13.18236807 0 11 C0.375 9.0625 0.375 9.0625 1 7 C3.64458379 5.67770811 5.67761301 5.90322806 8.625 5.9375 C10.12933594 5.95103516 10.12933594 5.95103516 11.6640625 5.96484375 C12.43492187 5.97644531 13.20578125 5.98804688 14 6 C14.144375 6.763125 14.28875 7.52625 14.4375 8.3125 C14.9632594 11.08172908 14.9632594 11.08172908 16 14 C16 12.68 16 11.36 16 10 C17 7.75 17 7.75 18 6 C24.75 5.875 24.75 5.875 27 7 C26.36437247 10.68663968 26.36437247 10.68663968 24.6328125 12.17578125 C21.84332791 15.29226284 20.83380838 19.4566818 19.51367188 23.375 C17.65189719 28.44064168 15.56211747 31.03519822 11 34 C8.48046875 34.3046875 8.48046875 34.3046875 6.1875 33.875 C5.41792969 33.74867188 4.64835937 33.62234375 3.85546875 33.4921875 C2 33 2 33 1 32 C1 30.35 1 28.7 1 27 C-3.29 27 -7.58 27 -12 27 C-12.33 25.68 -12.66 24.36 -13 23 C-12.67 22.67 -12.34 22.34 -12 22 C-11.76321284 19.30764224 -11.57801975 16.63501844 -11.4375 13.9375 C-11.39431641 13.17888672 -11.35113281 12.42027344 -11.30664062 11.63867188 C-11.20026367 9.75934562 -11.09960066 7.87969756 -11 6 C-11.99 5.67 -12.98 5.34 -14 5 C-13.75 3.125 -13.75 3.125 -13 1 C-8.78207274 -1.96817103 -4.29996407 -2.86664271 0 0 Z " fill="#00A2E8" transform="translate(377,406)"/>
<path d="M0 0 C0.33 0.66 0.66 1.32 1 2 C1.66 1.34 2.32 0.68 3 0 C6.9970313 -0.51813369 9.11622079 -0.67446308 12.375 1.8125 C14.37445401 5.73450594 14.61274414 9.02252933 14.82421875 13.37890625 C14.91780036 15.96668375 14.91780036 15.96668375 15.58203125 18.27734375 C15.71996094 18.84582031 15.85789062 19.41429687 16 20 C15 21 15 21 12.3828125 21.09765625 C11.30773437 21.08605469 10.23265625 21.07445312 9.125 21.0625 C8.05507813 21.05347656 6.98515625 21.04445313 5.8828125 21.03515625 C4.45582031 21.01775391 4.45582031 21.01775391 3 21 C2.01 21 1.02 21 0 21 C-3.66666667 21 -7.33333333 21 -11 21 C-11.5625 19.0625 -11.5625 19.0625 -12 17 C-11.67 16.67 -11.34 16.34 -11 16 C-10.90105545 14.5653041 -10.87029265 13.12559603 -10.875 11.6875 C-10.87242187 10.90761719 -10.86984375 10.12773437 -10.8671875 9.32421875 C-10.99500088 7.08748461 -11.38086131 5.14733021 -12 3 C-4.71428571 -0.42857143 -4.71428571 -0.42857143 0 0 Z M1 7 C-0.89885096 8.89885096 -0.12367506 11.57247903 -0.1328125 14.08984375 C-0.11686861 16.08634367 -0.11686861 16.08634367 1 18 C1.66 18 2.32 18 3 18 C4.14352916 15.71294169 4.10334439 14.40735238 4.0625 11.875 C4.041875 10.59625 4.02125 9.3175 4 8 C3.01 7.67 2.02 7.34 1 7 Z " fill="#00A2E8" transform="translate(256,412)"/>
<path d="M0 0 C4.56944444 2.13888889 4.56944444 2.13888889 6 5 C6.125 8.0625 6.125 8.0625 6 11 C5 12 5 12 2.71484375 12.09765625 C1.34005859 12.08025391 1.34005859 12.08025391 -0.0625 12.0625 C-0.98160156 12.05347656 -1.90070313 12.04445313 -2.84765625 12.03515625 C-3.55792969 12.02355469 -4.26820313 12.01195312 -5 12 C-5 12.66 -5 13.32 -5 14 C-1.65747276 14.07427838 0.8035914 14.06546953 4 13 C4.33 14.65 4.66 16.3 5 18 C1.13351344 21.36643287 -1.60496019 21.50286616 -6.5859375 21.36328125 C-9.96846396 20.85426028 -11.72322234 19.49711098 -14 17 C-15.61429923 13.77140153 -15.59570657 10.49006347 -15 7 C-11.35754996 0.65289489 -7.06758275 -0.78528697 0 0 Z M-5 5 C-5.33 5.66 -5.66 6.32 -6 7 C-4.68 6.67 -3.36 6.34 -2 6 C-2.99 5.67 -3.98 5.34 -5 5 Z " fill="#00A2E8" transform="translate(357,412)"/>
</svg>
